<?xml version="1.0" ?><svg style="enable-background:new 0 0 512 512;" version="1.1" viewBox="0 0 512 512" xml:space="preserve" xmlns="http://www.w3.org/2000/svg" xmlns:xlink="http://www.w3.org/1999/xlink"><style type="text/css">
	.st0{fill:#1E1E1E;}
	.st1{fill:#464646;stroke:#21759B;stroke-width:2;stroke-miterlimit:10;}
	.st2{fill:#FFFFFF;}
</style><g id="Edges"/><g id="Background_Bottom"><g><path class="st0" d="M492.3,443.1c0,34.2-27.7,61.9-61.9,61.9H80.7c-34.2,0-61.9-27.7-61.9-61.9V93.4c0-34.2,27.7-61.9,61.9-61.9    h349.7c34.2,0,61.9,27.7,61.9,61.9V443.1z"/></g></g><g id="Background"><path class="st1" d="M492.3,418.4c0,34.2-27.7,61.9-61.9,61.9H80.7c-34.2,0-61.9-27.7-61.9-61.9V68.6c0-34.2,27.7-61.9,61.9-61.9   h349.7c34.2,0,61.9,27.7,61.9,61.9V418.4z"/></g><g id="Symbol"><path class="st2" d="M354.9,138c-26.4-26.4-61.5-41-98.8-41c-77,0-139.7,62.7-139.7,139.7c0,24.6,6.4,48.7,18.7,69.8l-19.8,72.4   l74.1-19.4c20.4,11.1,43.4,17,66.8,17h0.1c77,0,139.7-62.7,139.7-139.7C395.8,199.5,381.2,164.4,354.9,138z M256,352.9L256,352.9   c-20.9,0-41.3-5.6-59.2-16.2l-4.2-2.5l-44,11.5l11.7-42.8l-2.8-4.4c-11.6-18.5-17.8-39.9-17.8-61.8c0-64,52.1-116.1,116.2-116.1   c31,0,60.2,12.1,82.1,34.1c21.9,21.9,34,51.1,34,82.1C372.1,300.8,320,352.9,256,352.9z"/><path class="st2" d="M221.1,178.3c-2.6-5.8-5.4-5.9-7.9-6c-2-0.1-4.4-0.1-6.7-0.1c-2.3,0-6.1,0.9-9.3,4.4   C194,180,185,188.5,185,205.7c0,17.2,12.5,33.8,14.3,36.1c1.7,2.3,24.2,38.7,59.6,52.7c29.5,11.6,35.5,9.3,41.9,8.7   c6.4-0.6,20.7-8.4,23.6-16.6c2.9-8.2,2.9-15.1,2-16.6c-0.9-1.5-3.2-2.3-6.7-4.1c-3.5-1.7-20.7-10.2-23.9-11.4   c-3.2-1.2-5.5-1.7-7.9,1.7c-2.3,3.5-9,11.4-11.1,13.7c-2,2.3-4.1,2.6-7.6,0.9c-3.5-1.8-14.7-5.4-28.1-17.3   c-10.4-9.3-17.4-20.7-19.4-24.2c-2-3.5-0.2-5.4,1.5-7.1c1.6-1.6,3.5-4.1,5.2-6.1c1.7-2,2.3-3.5,3.5-5.8c1.2-2.3,0.6-4.4-0.3-6.1   C231,202.5,224.2,185.2,221.1,178.3"/></g></svg>